<svg width="100" height="100" viewBox="0 0 100 100" fill="none" xmlns="http://www.w3.org/2000/svg">
<rect width="100" height="100" rx="14" fill="url(#paint0_linear_90019_94)"/>
<g filter="url(#filter0_ddi_90019_94)">
<mask id="path-2-inside-1_90019_94" fill="white">
<path d="M31.6779 65H24.1211L33.9364 35.9091H43.2972L53.1126 65H45.5558L38.7234 43.2386H38.4961L31.6779 65ZM30.6694 53.5511H46.4648V58.892H30.6694V53.5511ZM56.2447 65V35.9091H63.2759V59.2898H75.3782V65H56.2447Z"/>
</mask>
<path d="M31.6779 65H24.1211L33.9364 35.9091H43.2972L53.1126 65H45.5558L38.7234 43.2386H38.4961L31.6779 65ZM30.6694 53.5511H46.4648V58.892H30.6694V53.5511ZM56.2447 65V35.9091H63.2759V59.2898H75.3782V65H56.2447Z" fill="black"/>
<path d="M31.6779 65V66H32.4125L32.6322 65.299L31.6779 65ZM24.1211 65L23.1736 64.6803L22.7283 66H24.1211V65ZM33.9364 35.9091V34.9091H33.2185L32.9889 35.5894L33.9364 35.9091ZM43.2972 35.9091L44.2448 35.5894L44.0152 34.9091H43.2972V35.9091ZM53.1126 65V66H54.5054L54.0601 64.6803L53.1126 65ZM45.5558 65L44.6017 65.2996L44.8216 66H45.5558V65ZM38.7234 43.2386L39.6774 42.9391L39.4575 42.2386H38.7234V43.2386ZM38.4961 43.2386V42.2386H37.7615L37.5418 42.9397L38.4961 43.2386ZM30.6694 53.5511V52.5511H29.6694V53.5511H30.6694ZM46.4648 53.5511H47.4648V52.5511H46.4648V53.5511ZM46.4648 58.892V59.892H47.4648V58.892H46.4648ZM30.6694 58.892H29.6694V59.892H30.6694V58.892ZM31.6779 65V64H24.1211V65V66H31.6779V65ZM24.1211 65L25.0686 65.3197L34.884 36.2288L33.9364 35.9091L32.9889 35.5894L23.1736 64.6803L24.1211 65ZM33.9364 35.9091V36.9091H43.2972V35.9091V34.9091H33.9364V35.9091ZM43.2972 35.9091L42.3497 36.2288L52.1651 65.3197L53.1126 65L54.0601 64.6803L44.2448 35.5894L43.2972 35.9091ZM53.1126 65V64H45.5558V65V66H53.1126V65ZM45.5558 65L46.5098 64.7004L39.6774 42.9391L38.7234 43.2386L37.7693 43.5382L44.6017 65.2996L45.5558 65ZM38.7234 43.2386V42.2386H38.4961V43.2386V44.2386H38.7234V43.2386ZM38.4961 43.2386L37.5418 42.9397L30.7237 64.701L31.6779 65L32.6322 65.299L39.4504 43.5376L38.4961 43.2386ZM30.6694 53.5511V54.5511H46.4648V53.5511V52.5511H30.6694V53.5511ZM46.4648 53.5511H45.4648V58.892H46.4648H47.4648V53.5511H46.4648ZM46.4648 58.892V57.892H30.6694V58.892V59.892H46.4648V58.892ZM30.6694 58.892H31.6694V53.5511H30.6694H29.6694V58.892H30.6694ZM56.2447 65H55.2447V66H56.2447V65ZM56.2447 35.9091V34.9091H55.2447V35.9091H56.2447ZM63.2759 35.9091H64.2759V34.9091H63.2759V35.9091ZM63.2759 59.2898H62.2759V60.2898H63.2759V59.2898ZM75.3782 59.2898H76.3782V58.2898H75.3782V59.2898ZM75.3782 65V66H76.3782V65H75.3782ZM56.2447 65H57.2447V35.9091H56.2447H55.2447V65H56.2447ZM56.2447 35.9091V36.9091H63.2759V35.9091V34.9091H56.2447V35.9091ZM63.2759 35.9091H62.2759V59.2898H63.2759H64.2759V35.9091H63.2759ZM63.2759 59.2898V60.2898H75.3782V59.2898V58.2898H63.2759V59.2898ZM75.3782 59.2898H74.3782V65H75.3782H76.3782V59.2898H75.3782ZM75.3782 65V64H56.2447V65V66H75.3782V65Z" fill="#1C1C21" mask="url(#path-2-inside-1_90019_94)"/>
</g>
<defs>
<filter id="filter0_ddi_90019_94" x="10.725" y="30.1679" width="78.0493" height="55.8832" filterUnits="userSpaceOnUse" color-interpolation-filters="sRGB">
<feFlood flood-opacity="0" result="BackgroundImageFix"/>
<feColorMatrix in="SourceAlpha" type="matrix" values="0 0 0 0 0 0 0 0 0 0 0 0 0 0 0 0 0 0 127 0" result="hardAlpha"/>
<feMorphology radius="1" operator="dilate" in="SourceAlpha" result="effect1_dropShadow_90019_94"/>
<feOffset/>
<feComposite in2="hardAlpha" operator="out"/>
<feColorMatrix type="matrix" values="0 0 0 0 0.784314 0 0 0 0 0.858824 0 0 0 0 0.917647 0 0 0 1 0"/>
<feBlend mode="normal" in2="BackgroundImageFix" result="effect1_dropShadow_90019_94"/>
<feColorMatrix in="SourceAlpha" type="matrix" values="0 0 0 0 0 0 0 0 0 0 0 0 0 0 0 0 0 0 127 0" result="hardAlpha"/>
<feMorphology radius="5.74118" operator="erode" in="SourceAlpha" result="effect2_dropShadow_90019_94"/>
<feOffset dy="7.6549"/>
<feGaussianBlur stdDeviation="9.56865"/>
<feComposite in2="hardAlpha" operator="out"/>
<feColorMatrix type="matrix" values="0 0 0 0 0.788235 0 0 0 0 0.858824 0 0 0 0 0.917647 0 0 0 0.32 0"/>
<feBlend mode="normal" in2="effect1_dropShadow_90019_94" result="effect2_dropShadow_90019_94"/>
<feBlend mode="normal" in="SourceGraphic" in2="effect2_dropShadow_90019_94" result="shape"/>
<feColorMatrix in="SourceAlpha" type="matrix" values="0 0 0 0 0 0 0 0 0 0 0 0 0 0 0 0 0 0 127 0" result="hardAlpha"/>
<feOffset dy="3.82745"/>
<feGaussianBlur stdDeviation="4"/>
<feComposite in2="hardAlpha" operator="arithmetic" k2="-1" k3="1"/>
<feColorMatrix type="matrix" values="0 0 0 0 0.0470588 0 0 0 0 0.286275 0 0 0 0 0.52549 0 0 0 0.04 0"/>
<feBlend mode="normal" in2="shape" result="effect3_innerShadow_90019_94"/>
</filter>
<linearGradient id="paint0_linear_90019_94" x1="50" y1="0" x2="50" y2="100" gradientUnits="userSpaceOnUse">
<stop stop-color="#EBF3FA"/>
<stop offset="1" stop-color="#DFEDFA"/>
</linearGradient>
</defs>
</svg>
